<svg width="81" height="76" viewBox="0 0 81 76" fill="none" xmlns="http://www.w3.org/2000/svg">
<path d="M48.6409 33.822C48.6368 33.822 48.6368 33.822 48.6368 33.822C48.6368 33.8179 48.6409 33.8139 48.6409 33.8139C49.2705 29.4863 53.5314 25.9353 56.9069 20.3782C57.0897 20.9606 56.4966 24.997 54.4576 28.5723C58.9013 25.7937 64.6895 23.4965 70.5305 19.6826C70.303 21.3084 60.3757 35.2092 48.6409 33.822ZM64.2467 64.7094C57.114 55.4112 48.7953 49.8865 46.8334 42.2627C59.4253 45.0534 64.6042 62.9541 64.2467 64.7094ZM16.2471 64.7094C15.8896 62.9541 21.0686 45.0534 33.6645 42.2627C31.6986 49.8865 23.3798 55.4112 16.2471 64.7094ZM9.97957 19.6826C15.8206 23.4965 21.6088 25.7937 26.0525 28.5723C24.0094 24.997 23.4164 20.9606 23.6032 20.3782C26.9786 25.9353 31.2355 29.4863 31.8651 33.8139C31.8692 33.8139 31.8692 33.8179 31.8732 33.822C20.1343 35.2092 10.203 21.3084 9.97957 19.6826ZM80.5878 2.8132C80.5675 2.09733 80.5228 1.38551 80.4537 0.677734C79.0524 2.62716 77.3626 4.40267 75.5388 5.96382C71.4607 9.45418 66.7001 12.0345 62.0493 14.7241C57.4024 17.4136 52.7678 20.2852 49.1161 24.2164C46.8862 26.6148 45.0786 29.3933 43.7544 32.3821C43.7544 32.3781 43.7544 32.374 43.7544 32.37C43.7626 30.8978 43.4295 29.7452 42.9055 28.9201C43.0436 28.6896 43.1858 28.459 43.3198 28.2244C44.8065 25.6643 46.0738 22.8332 47.8895 20.6816C48.6815 19.7432 49.5995 18.9384 50.6353 18.3762C50.8343 18.267 51.0415 18.1659 51.2527 18.0729C49.7579 17.9596 48.3647 18.2792 47.1867 18.9546C45.0299 20.1922 43.5351 22.5339 42.5034 25.2599C42.2028 26.0526 41.9428 26.8817 41.7032 27.731C40.7852 27.1931 39.7087 27.1931 38.7907 27.731C38.5551 26.8817 38.291 26.0526 37.9905 25.2599C36.9587 22.5339 35.468 20.1922 33.3112 18.9546C32.1291 18.2792 30.74 17.9596 29.2411 18.0729C29.4523 18.1659 29.6595 18.267 29.8626 18.3762C30.8984 18.9384 31.8123 19.7432 32.6044 20.6816C34.4201 22.8332 35.6874 25.6643 37.174 28.2244C37.3121 28.459 37.4502 28.6896 37.5924 28.9201C37.0928 29.7047 36.7719 30.7886 36.7475 32.1637C35.4315 29.2558 33.6564 26.5541 31.4792 24.2164C27.8316 20.2852 23.197 17.4136 18.5461 14.7241C13.8993 12.0345 9.1347 9.45418 5.06061 5.96382C3.23682 4.40267 1.54707 2.62716 0.141648 0.677734C0.072596 1.38551 0.0319772 2.09733 0.0116677 2.8132C-0.102066 6.95876 0.61689 11.1448 2.11573 15.0153C5.24339 23.092 11.6003 29.7694 19.261 33.8664C20.3374 34.4448 21.4423 34.9706 22.5634 35.4478C22.0434 35.3872 21.5235 35.3305 21.0036 35.282C18.603 35.0434 16.178 34.8533 13.8668 34.2911C12.831 34.0404 11.8074 33.7047 10.8732 33.276C10.9788 33.5065 11.0925 33.733 11.2185 33.9595C11.9455 35.2699 13.0179 36.4872 14.3542 37.5024C16.6736 39.2698 19.72 40.4387 22.9208 40.9483C26.8446 38.7845 30.3825 37.9554 30.3825 37.9554C30.3825 37.9554 28.5344 39.1242 26.1703 40.9928C25.0939 41.8421 23.9078 42.8411 22.7461 43.9412C17.5225 49.0574 13.9156 55.8804 13.1438 63.128C12.7579 66.7195 13.1032 70.404 14.139 73.866C14.3177 74.4605 14.5167 75.047 14.7361 75.6294C15.4713 73.6719 16.4908 71.8033 17.6688 70.0764C20.309 66.2261 23.7251 62.9865 27.0233 59.6781C30.3216 56.3738 33.5671 52.9158 35.7483 48.7904C36.4023 47.5528 36.9466 46.2627 37.3852 44.9361C37.9742 51.0756 38.945 56.9238 40.2489 62.1169C41.5813 56.7984 42.5724 50.7884 43.1533 44.4831C43.6163 45.9674 44.2134 47.4153 44.9405 48.7904C47.1177 52.9158 50.3632 56.3738 53.6655 59.6781C56.9637 62.9865 60.3798 66.2261 63.016 70.0764C64.198 71.8033 65.2175 73.6719 65.9527 75.6294C66.1721 75.047 66.3711 74.4605 66.5498 73.866C67.5856 70.404 67.9309 66.7195 67.545 63.128C66.7448 55.6336 62.9144 48.5923 57.4065 43.4235C56.5779 42.6469 55.7167 41.9149 54.8231 41.2233C54.8272 41.2233 54.8353 41.2192 54.8434 41.2192C52.3454 39.2213 50.3388 37.9554 50.3388 37.9554C50.3388 37.9554 53.8483 38.7804 57.7518 40.92C60.8876 40.3982 63.8649 39.2375 66.1437 37.5024C67.476 36.4872 68.5524 35.2699 69.2794 33.9595C69.4054 33.733 69.5191 33.5065 69.6247 33.276C68.6864 33.7047 67.6669 34.0404 66.6311 34.2911C64.3158 34.8533 61.8908 35.0434 59.4943 35.282C59.0191 35.3265 58.5438 35.3791 58.0686 35.4316C59.1775 34.9584 60.2701 34.4367 61.3384 33.8664C68.9951 29.7694 75.352 23.092 78.4837 15.0153C79.9826 11.1448 80.7015 6.95876 80.5878 2.8132Z" fill="white"/>
</svg>
