<svg width="74" height="80" viewBox="0 0 74 80" fill="none" xmlns="http://www.w3.org/2000/svg">
<path d="M6.24065 26.884C6.24065 21.9134 7.43891 17.2178 9.55923 13.0723C6.24471 18.144 4.31531 24.1985 4.31531 30.6899C4.31531 45.1528 13.8811 57.4277 27.0457 61.5773C27.6428 59.7452 28.2196 57.9858 28.7761 56.2831C15.7902 52.7564 6.24065 40.9304 6.24065 26.884Z" fill="white"/>
<path d="M73.6878 35.657C73.6878 30.9533 72.7983 26.464 71.1776 22.3306C71.8356 25.012 72.189 27.8108 72.189 30.6904C72.189 46.3991 61.7986 59.7336 47.5048 64.2472C47.7566 65.0278 48.0085 65.8205 48.2684 66.6334C46.1156 68.1743 44.3284 69.8973 42.6427 71.8912C60.2348 69.1207 73.6878 53.9541 73.6878 35.657Z" fill="white"/>
<path d="M69.3725 30.6899C69.3725 24.1985 67.4431 18.144 64.1245 13.0723C66.2489 17.2178 67.4471 21.9094 67.4471 26.884C67.4471 40.9344 57.8935 52.7604 44.9036 56.2831C45.46 57.9858 46.0409 59.7452 46.638 61.5773C59.8026 57.4317 69.3725 45.1528 69.3725 30.6899Z" fill="white"/>
<path d="M25.4194 66.6323C25.6753 65.8194 25.9312 65.0267 26.183 64.2461C11.8851 59.7325 1.49884 46.3979 1.49884 30.6893C1.49884 27.8097 1.84817 25.0109 2.5062 22.3335C0.889557 26.4629 0 30.9563 0 35.6559C0 53.9489 13.4408 69.1115 31.0289 71.886C29.3473 69.8962 27.5641 68.1732 25.4194 66.6323Z" fill="white"/>
<path d="M36.8338 72.4908C34.8394 69.7285 32.7759 67.2694 30.29 65.1097C30.9074 63.0713 31.5127 61.1259 32.1016 59.225C33.4421 54.8934 34.7094 50.8005 35.8061 46.7924C36.1595 45.5144 36.5007 44.3132 36.8338 43.1443C37.1709 44.3132 37.5121 45.5144 37.8736 46.8126C38.9663 50.8085 40.2376 54.9056 41.5862 59.2453C42.1752 61.1381 42.7763 63.0753 43.3937 65.1057C40.9038 67.2654 38.8322 69.7244 36.8338 72.4908ZM48.268 66.6304C48.0081 65.8215 47.7562 65.0248 47.5044 64.2442C47.2119 63.3382 46.9235 62.4485 46.6392 61.5789C46.038 59.7427 45.4612 57.9874 44.9048 56.2847C43.8243 52.9845 42.8332 49.8824 41.9477 46.8086C40.1523 40.6732 38.7713 34.6348 36.8297 25.5591C34.8922 34.6348 33.5152 40.6691 31.7239 46.8045C30.8424 49.8783 29.8513 52.9804 28.7749 56.2807C28.2185 57.9834 27.6417 59.7427 27.0446 61.5749C26.7602 62.4485 26.4718 63.3382 26.1794 64.2442C25.9316 65.0248 25.6757 65.8175 25.4198 66.6304C27.5645 68.1754 29.3477 69.8943 31.0293 71.8882C32.9628 74.1773 34.7622 76.8305 36.8297 80.0054C38.9013 76.8305 40.7047 74.1773 42.6423 71.8882C44.328 69.8943 46.1152 68.1754 48.268 66.6304Z" fill="white"/>
<path d="M36.843 0C23.5037 0 12.6869 10.7704 12.6869 24.0523C12.6869 31.4739 16.0623 38.1108 21.3712 42.5233C18.5035 39.0653 16.7813 34.6366 16.7813 29.8035C16.7813 18.7703 25.7622 9.828 36.843 9.828C47.9239 9.828 56.9048 18.7703 56.9048 29.8035C56.9048 34.6366 55.1825 39.0653 52.3148 42.5233C57.6237 38.1108 60.9992 31.4739 60.9992 24.0523C60.9992 10.7704 50.1823 0 36.843 0Z" fill="white"/>
</svg>