<svg width="92" height="90" viewBox="0 0 92 90" fill="none" xmlns="http://www.w3.org/2000/svg">
<path d="M21.0474 40.7718L39.1522 40.5817L28.6154 33.4958C28.6154 33.4958 12.8693 30.8022 0.592041 28.7314C11.9502 32.8608 27.489 38.4988 27.489 38.4988L21.0474 40.7718Z" fill="white"/>
<path d="M64.8978 47.7605L71.4533 45.2449L53.3525 46.1468L63.5761 52.5855L91.994 56.3428L64.8978 47.7605Z" fill="white"/>
<path d="M18.9274 54.4209L40.5174 43.509L26.0563 47.1005L28.2808 44.686L1.3269 47.0965L21.7253 50.2471L18.9274 54.4209Z" fill="white"/>
<path d="M51.619 42.5824L63.331 38.5987L59.6304 41.7331L88.2068 37.6765L69.1586 35.4521L71.9849 31.0881L51.619 42.5824Z" fill="white"/>
<path d="M38.9261 53.0151L34.5869 54.7502L42.7447 46.9646L12.6147 64.6995L29.0563 59.5388L28.5601 68.8693L38.9261 53.0151Z" fill="white"/>
<path d="M54.398 29.489L48.0581 39.9237C48.0581 39.9237 63.914 29.5578 77.8993 20.5104C71.9335 22.5326 62.2426 25.845 62.2426 25.845L62.9828 15.3052L55.0243 32.575L54.398 29.489Z" fill="white"/>
<path d="M57.0956 57.857L52.9232 57.307L60.4384 73.141L61.5201 57.1574L48.4376 47.7864L57.0956 57.857Z" fill="white"/>
<path d="M33.5512 26.215L38.1302 28.6659L29.8708 10.3567L29.212 28.3423L42.6076 38.8579L33.5512 26.215Z" fill="white"/>
<path d="M40.6813 20.0076L45.9191 35.8902L53.4709 17.2655L47.8955 22.41L45.728 -0.000244141L40.6813 20.0076Z" fill="white"/>
<path d="M37.0863 69.0852L43.3774 63.601L45.3864 89.8979L51.2424 66.0317L45.7158 49.8215L37.0863 69.0852Z" fill="white"/>
</svg>
