<svg width="75" height="83" viewBox="0 0 75 83" fill="none" xmlns="http://www.w3.org/2000/svg">
<path d="M13.1172 50.7921C16.2774 49.2997 20.3474 49.6515 20.3474 49.6515C20.3474 49.6515 11.7646 53.1904 8.60037 57.4816C7.80423 58.7071 6.96342 60.0053 6.14292 61.2834C10.018 59.4472 14.7176 59.5119 14.7176 59.5119C14.7176 59.5119 5.10713 64.3086 0.846191 69.7929L14.5673 82.6057C12.1627 60.9234 28.8327 42.9782 38.9469 35.6133C24.3606 37.6719 17.1304 45.3199 13.1172 50.7921Z" fill="white"/>
<path d="M70.7382 0C68.0492 23.9431 40.1277 21.658 35.9033 19.4214C42.4755 18.932 47.171 18.6853 51.8463 16.7076C44.153 16.3638 34.5385 12.9948 23.6282 7.80982C32.4182 16.4447 28.864 28.1857 21.512 38.6689C44.9451 24.1049 57.2811 35.9147 47.3619 56.2501C81.4372 39.6032 75.7668 6.26889 70.7382 0Z" fill="white"/>
</svg>
