<svg width="67" height="83" viewBox="0 0 67 83" fill="none" xmlns="http://www.w3.org/2000/svg">
<path d="M57.3222 68.55C58.0182 69.094 59.5382 69.95 62.1942 69.95C62.9422 69.95 63.7742 69.882 64.7062 69.722C64.7862 69.19 64.7742 68.662 64.5862 68.222C64.1462 67.19 62.8182 67.01 61.9502 67.01C61.4862 67.01 61.1542 67.062 61.1542 67.062C61.1542 67.062 56.5782 63.214 49.2222 56.866C47.8382 55.674 46.6582 54.622 45.6382 53.686C44.5382 53.978 43.4422 54.138 42.3822 54.226C42.5182 54.374 42.6502 54.514 42.7742 54.646C44.6942 56.678 49.9902 61.678 57.3222 68.55Z" fill="white"/>
<path d="M15.9187 22.4919C10.8387 15.8279 6.59067 8.55587 4.13068 0.567871C0.710678 7.43587 -0.177323 14.7799 0.866677 21.4719C1.45868 25.2839 2.64668 28.8999 4.24668 32.3279C11.5507 33.6519 18.0547 36.8319 22.8267 41.8959C23.9027 43.0399 24.8587 44.2439 25.6947 45.4959C25.7467 45.4359 25.7947 45.3719 25.8427 45.3119C25.9827 45.1319 26.1187 44.9599 26.2547 44.7919C27.3427 43.4399 28.1907 41.3119 28.7507 39.8999C28.8707 39.5999 28.9787 39.3239 29.0747 39.0879C29.3387 38.4559 29.6667 37.9039 30.0507 37.4279C24.4427 31.8759 20.8387 28.9439 15.9187 22.4919Z" fill="white"/>
<path d="M13.8859 42.853C15.0739 47.765 17.6179 50.049 20.4539 51.117C21.7779 49.873 22.7659 48.865 23.5459 48.021C21.0219 47.845 17.4699 46.793 13.8859 42.853Z" fill="white"/>
<path d="M50.2343 73.9228C50.9463 75.4868 50.6783 76.6428 50.1983 78.5268C49.9863 80.2188 51.6743 81.0468 53.2263 81.0468C53.8943 81.0468 54.5383 80.8948 54.9903 80.5908C57.7383 78.7508 59.5303 78.0188 60.7143 78.0188C62.6303 78.0188 62.9383 79.9428 63.0903 82.1668C63.1183 82.1668 69.9823 75.1748 63.2863 71.7788C62.8983 71.8108 62.5143 71.8268 62.1383 71.8268C61.1183 71.8268 60.1383 71.7108 59.2303 71.4828C57.4063 71.0228 55.6503 70.3508 54.4103 69.2308C50.5103 65.7108 44.7623 60.2988 39.2023 54.3428C39.1023 54.3428 39.0023 54.3428 38.9023 54.3468C37.7743 54.3508 36.3743 54.3588 35.9063 54.5468C35.6063 54.6668 35.3263 54.8148 35.0503 54.9868C35.9703 55.9908 36.7823 57.1068 37.6503 58.1148C41.6023 62.7068 49.4503 72.1908 50.2343 73.9228Z" fill="white"/>
<path d="M62.4267 32.3284C64.0267 28.9004 65.2147 25.2844 65.8067 21.4724C66.8507 14.7804 65.9627 7.43636 62.5427 0.568359C60.0827 8.55636 55.8347 15.8284 50.7547 22.4924C45.5987 29.2564 41.8827 32.1484 35.7948 38.2524C35.3468 37.9844 34.7028 37.7524 34.0188 37.7524C32.9948 37.7524 31.8788 38.2724 31.1748 39.9604C30.5708 41.4124 29.5708 44.2964 28.0268 46.2164C26.4828 48.1364 24.8108 50.5204 17.4508 56.8684C10.0948 63.2164 5.51879 67.0604 5.51879 67.0604C5.51879 67.0604 5.18679 67.0124 4.72279 67.0124C3.85479 67.0124 2.52679 67.1884 2.08679 68.2204C1.89879 68.6604 1.88679 69.1884 1.96679 69.7204C2.89879 69.8804 3.73479 69.9484 4.47879 69.9484C7.13479 69.9484 8.65479 69.0964 9.35079 68.5484C16.6828 61.6764 21.9788 56.6804 23.8988 54.6444C26.3988 51.9964 31.8308 45.9884 31.8308 45.9884C31.8308 45.9884 32.5948 46.4124 33.5708 46.4124C33.9708 46.4124 34.4068 46.3444 34.8428 46.1444C34.3348 46.8684 32.7988 48.3724 32.2268 49.0404C25.4108 56.9884 17.3028 64.6844 12.2628 69.2324C11.0228 70.3484 9.27079 71.0204 7.44679 71.4804C6.53479 71.7124 5.55479 71.8284 4.53479 71.8284C4.15879 71.8284 3.77479 71.8124 3.38679 71.7804C-3.30921 75.1764 3.55479 82.1684 3.58279 82.1684C3.73879 79.9404 4.04679 78.0204 5.96279 78.0204C7.14279 78.0204 8.93479 78.7484 11.6828 80.5924C12.1388 80.8964 12.7788 81.0484 13.4468 81.0484C14.9988 81.0484 16.6908 80.2164 16.4748 78.5284C15.9948 76.6404 15.7308 75.4884 16.4388 73.9244C17.2268 72.1924 25.0708 62.7084 29.0228 58.1164C30.8068 56.0404 32.3628 53.5164 35.0628 52.4364C38.5228 51.0524 49.8387 55.0564 52.7867 42.8524C48.7907 47.2484 44.8307 48.0524 42.2987 48.0524C40.8507 48.0524 39.8708 47.7884 39.6148 47.7844C40.7267 45.6924 42.1307 43.7164 43.8467 41.8964C48.6187 36.8324 55.1227 33.6524 62.4267 32.3284Z" fill="white"/>
</svg>
