<svg width="73" height="87" viewBox="0 0 73 87" fill="none" xmlns="http://www.w3.org/2000/svg">
<path d="M49.1813 1.94258C57.16 4.36801 61.9255 11.9552 63.9004 16.5722C66.8127 14.6125 69.9766 12.0183 73 9.47036C69.9528 15.2946 65.628 18.8047 63.7997 32.9177C62.0411 29.2094 60.662 26.7274 58.1232 23.8523C56.1534 21.6212 53.4339 18.5031 50.3158 18.5031C45.7753 19.2638 45.1333 25.1533 39.2698 20.4904C40.1376 26.5728 42.8318 33.7047 48.3491 34.4444C50.4199 34.239 52.5163 34.2425 54.5967 34.236C57.064 34.2283 60.6357 34.9158 62.8799 35.7904C60.7125 37.0197 55.8374 40.3182 52.2465 44.6244C48.803 48.754 46.6523 52.5996 45.0465 57.2588C43.4407 61.9179 42.1262 67.2158 41.1309 72.7833C40.2591 77.9546 40.2105 81.4058 39.4424 87C39.2241 85.8615 38.5233 82.8315 38.3289 81.3056C37.1657 72.1714 37.436 53.4342 37.6855 47.8952C40.9663 45.2729 42.5807 43.4775 43.8301 42.4272C42.6458 37.3195 39.3257 30.7098 36.5 27.125C33.6744 30.7099 30.3542 37.3195 29.1699 42.4272C30.4193 43.4775 32.0337 45.273 35.3145 47.8952C35.564 53.4342 35.8343 72.1714 34.6711 81.3056C34.4767 82.8315 33.7759 85.8615 33.5576 87C32.7895 81.4058 32.7409 77.9546 31.8691 72.7833C30.8739 67.2158 29.5593 61.9179 27.9535 57.2588C26.3477 52.5997 24.197 48.754 20.7535 44.6244C17.1627 40.3182 12.2875 37.0197 10.1201 35.7904C12.3643 34.9158 15.936 34.2284 18.4033 34.236C20.4837 34.2424 22.5801 34.239 24.6509 34.4444C30.1683 33.7047 32.8624 26.5728 33.7302 20.4904C27.8667 25.1533 27.2247 19.2638 22.6842 18.5031C19.5661 18.5031 16.8466 21.6212 14.8768 23.8523C12.338 26.7275 10.9589 29.2095 9.20029 32.9177C7.37202 18.8047 3.04723 15.2946 0 9.47036C3.02337 12.0183 6.1873 14.6125 9.09961 16.5722C11.0745 11.9552 15.84 4.36791 23.8187 1.94258C32.3464 -0.649544 40.6669 -0.645506 49.1813 1.94258ZM48.6334 76.3586C46.7823 67.7753 47.1478 62.2225 49.5427 56.08C52.8543 47.5862 60.415 40.2887 70.364 34.9997C68.6812 38.3245 66.0735 40.902 65.3155 44.974C51.1877 52.1687 49.228 68.2584 48.6334 76.3586ZM65.5831 56.6379C60.7168 58.8996 59.0731 62.1924 56.8791 68.6683C56.3869 65.7068 56.9072 62.8039 57.8121 60.022C58.9515 56.5192 61.4871 52.6748 64.5847 50.5905C64.5658 52.2029 64.8096 54.6663 65.5831 56.6379ZM24.3666 76.3586C26.2177 67.7753 25.8522 62.2225 23.4573 56.08C20.1457 47.5862 12.585 40.2887 2.63601 34.9997C4.31883 38.3245 6.92651 40.902 7.68454 44.974C21.8123 52.1687 23.772 68.2584 24.3666 76.3586ZM7.41694 56.6379C12.2832 58.8996 13.9269 62.1924 16.1209 68.6683C16.6131 65.7068 16.0928 62.8039 15.1879 60.022C14.0485 56.5192 11.5129 52.6748 8.4153 50.5905C8.43417 52.2029 8.19044 54.6663 7.41694 56.6379Z" fill="white"/>
</svg>
