<svg width="77" height="81" viewBox="0 0 77 81" fill="none" xmlns="http://www.w3.org/2000/svg">
<path d="M66.9076 18.2009C62.1456 17.8288 57.6194 21.1412 56.7328 25.9137C56.6962 26.0795 56.6718 26.2494 56.6434 26.4192C52.4262 25.1533 47.7862 25.214 43.63 26.7751C40.9216 27.7701 38.4655 29.3717 36.2004 31.1755C40.5517 32.3201 44.2482 32.2634 47.6398 29.857C47.6398 29.857 45.0412 34.1846 36.4281 34.1805C35.7042 34.1805 34.9438 34.1522 34.1345 34.0875C28.9698 33.6628 25.5457 31.6042 22.7763 28.2958C20.1411 25.578 18.8438 21.5861 19.3278 17.7924C19.6531 15.119 20.8568 12.5427 22.573 10.4154C25.3993 7.66918 26.5827 7.66514 27.762 7.45887C29.2952 7.12722 31.0642 7.89971 32.1134 9.08474C32.7844 9.83296 33.248 10.8764 33.4106 12.0008C33.7807 14.4032 32.577 16.8541 30.6128 18.3627C28.5713 19.9643 25.566 20.5224 22.7844 19.8066L22.6177 20.2757C28.002 22.8116 34.6876 20.2919 36.668 14.5407C37.9043 11.0018 36.9039 7.03016 34.289 4.45385C39.0023 4.07367 43.935 5.41642 47.7008 8.34865C50.3156 10.2657 52.5198 12.8016 54.1302 15.7055C54.2196 15.8673 54.4189 15.9401 54.5938 15.8673C54.7808 15.7904 54.8744 15.5761 54.7971 15.39C52.1741 8.90274 46.6231 3.53981 39.718 1.56207C32.5688 -0.565305 24.1549 1.15763 18.6974 6.41945C16.1517 8.78949 14.1956 11.8228 13.0936 15.1352C13.0773 15.0584 13.0692 15.0179 13.0692 15.0179C11.6906 18.8238 11.654 20.761 11.1822 21.9137C10.7186 23.1958 9.44577 24.1179 8.08344 24.3444C7.21723 24.49 6.22903 24.3485 5.3181 23.9521C3.36202 23.1109 2.09729 21.0927 1.88582 18.9572C1.63776 16.7126 2.60969 14.2495 4.4275 12.5346L4.1591 12.1949C-0.216644 14.9815 -1.43258 21.0563 1.92649 25.1695C4.53323 28.3889 9.31157 29.2948 12.9187 27.1027C13.9516 30.6538 15.9321 33.9419 18.7096 36.4414C20.9829 38.5162 23.7442 40.0167 26.5827 41.2501C24.5778 37.0844 22.089 34.2493 17.9492 33.2543C17.9492 33.2543 23.8092 32.2028 30.015 40.6193C30.6778 41.513 31.235 42.3826 31.7026 43.2319C33.2195 45.9862 33.7726 48.5423 33.7522 51.2359C33.8092 52.1944 33.736 53.1448 33.5367 54.0831C33.5042 54.2975 33.4594 54.4835 33.4025 54.6534C33.252 55.2156 33.0528 55.7697 32.8088 56.3197C31.3732 59.6159 28.5225 61.986 25.1512 63.0739C25.1878 63.0537 25.2082 63.0456 25.2082 63.0456C18.852 63.8464 17.8109 62.8839 16.5828 62.1437C15.2082 61.3915 14.3868 59.6523 14.3786 58.075C14.3664 57.072 14.708 55.984 15.3262 55.0295C16.6356 52.979 19.161 51.9153 21.6376 52.0609C24.2362 52.1903 26.8674 53.7353 28.494 56.0932L28.9292 55.8506C26.5461 50.4148 19.8442 47.9437 14.5494 50.9851C11.6377 52.6393 9.83617 55.7131 9.66537 58.9446C8.53077 57.804 7.54663 56.5017 6.76177 55.0902C3.78089 49.8041 3.73616 43.0742 6.12737 37.4525C6.29817 37.0278 5.71257 36.7326 5.46857 37.1249C2.12982 42.8719 1.35716 50.1358 3.91509 56.4289C6.50963 63.0052 12.7642 68.263 19.9378 69.2336C21.8084 69.5208 23.7279 69.537 25.6148 69.2943C26.725 69.2094 27.4936 69.1123 28.1077 69.1689C29.4741 69.2458 30.7266 70.1962 31.3326 71.4338C31.723 72.2184 31.8694 73.2012 31.7433 74.18C31.4912 76.2831 29.9092 78.0667 27.9125 78.8796C25.8222 79.7532 23.1708 79.5267 20.9992 78.2851L20.747 78.641C24.6795 82.0141 30.8812 81.4398 33.8864 77.0677C36.0784 73.905 35.81 69.5248 33.2398 66.6614C34.0044 66.2003 34.7404 65.6826 35.4318 65.1043C39.5188 61.7797 42.2555 56.7727 42.6215 51.4745C42.8004 49.1894 42.5402 46.884 42.0603 44.6232C38.9494 48.4897 37.335 52.1135 38.3638 56.437C38.3638 56.437 34.773 51.7171 39.5147 42.4028C39.9376 41.5737 40.385 40.8094 40.8484 40.1016C43.2966 36.413 46.3954 34.411 50.5637 33.7478C50.58 33.7437 50.5962 33.7437 50.6166 33.7397C50.702 33.7235 50.7914 33.7114 50.8809 33.6992C50.9053 33.6952 50.9256 33.6911 50.95 33.6911C54.0692 33.2786 57.3754 34.047 59.9984 35.8347C62.296 37.3756 64.0854 39.6971 65.1956 42.2612C65.8747 43.7941 66.2692 45.3876 66.4156 46.9892C66.4278 47.2683 66.4318 47.5352 66.4196 47.7859C66.4237 49.3754 65.3908 50.8961 63.9796 51.6807C63.085 52.1863 61.9422 52.4209 60.7832 52.344C58.2985 52.1903 56.0984 50.4755 55.0086 48.2066C53.8414 45.8365 53.9309 42.7425 55.2444 40.138L54.8093 39.871C51.1127 44.6636 52.2026 51.8263 57.538 55.0215C59.7869 56.3844 62.2798 56.7848 64.5774 56.255C62.6702 60.1053 59.4534 63.3732 55.5047 65.1892C52.6011 66.629 49.3274 67.4177 46.0009 67.5147C45.8179 67.5228 45.6634 67.6644 45.6471 67.8504C45.6268 68.0527 45.7772 68.2306 45.9806 68.2508C52.9712 68.8899 60.2871 66.4308 65.2037 61.2378C70.3643 55.891 72.662 47.6727 70.4497 40.4534C69.246 36.2634 66.6799 32.4171 63.1948 29.7357C61.2224 28.1543 61.9382 25.1695 62.8125 23.8793C63.3615 23.0542 64.248 22.3586 65.285 21.9218C67.4932 20.9754 70.1447 21.5012 72.0805 22.9895C74.126 24.5264 75.407 27.2362 75.4151 30.0511L75.9072 30.0956C76.997 24.3566 72.9141 18.6458 66.9076 18.2009Z" fill="white"/>
</svg>
