<svg width="95" height="83" viewBox="0 0 95 83" fill="none" xmlns="http://www.w3.org/2000/svg">
<path d="M60.1298 40.0999L59.7052 47.2889L66.4572 60.5005L64.5611 45.8329L60.1298 40.0999Z" fill="white"/>
<path d="M76.8123 28.8372L79.2717 34.0987L89.1433 40.9692L82.1601 31.257L76.8123 28.8372Z" fill="white"/>
<path d="M30.2965 45.8314L28.4045 60.499L35.1566 47.2916L34.7277 40.0984L30.2965 45.8314Z" fill="white"/>
<path d="M12.6974 31.2575L5.71838 40.9655L15.5858 34.0992L18.0452 28.8377L12.6974 31.2575Z" fill="white"/>
<path d="M69.5683 28.3222L64.9479 17.2202C65.7467 16.426 66.4866 15.5781 67.1677 14.6805L76.909 20.1115C74.9204 23.218 72.4356 25.9935 69.5683 28.3222ZM53.3484 35.6643L54.9039 23.28C55.4631 23.1063 56.0138 22.9119 56.5562 22.6968L63.922 32.0656C60.6722 33.7905 57.1112 35.0273 53.3484 35.6643ZM82.2189 3.26827C82.0508 7.49564 81.0964 11.5286 79.503 15.2306L71.0861 6.94964C71.435 5.75836 71.6999 4.52986 71.8597 3.26827H82.2189ZM30.9397 32.0656L38.3056 22.6968C38.8479 22.9119 39.3987 23.1063 39.9578 23.28L41.5134 35.6643C37.7506 35.0273 34.1896 33.7905 30.9397 32.0656ZM17.9528 20.1115L27.694 14.6805C28.3751 15.5781 29.1151 16.4219 29.9139 17.2202L25.2934 28.3222C22.4261 25.9935 19.9414 23.218 17.9528 20.1115ZM12.6428 3.26827H23.0021C23.1619 4.52986 23.4267 5.75836 23.7757 6.94964L15.3588 15.2306C13.7654 11.5286 12.811 7.49564 12.6428 3.26827ZM79.3222 21.4559L94.3398 29.8279L81.6051 17.2988C83.7955 12.6082 85.019 7.39636 85.019 1.90327V0.5755H67.0584C67.0374 1.48964 66.9575 2.39136 66.8146 3.26827C65.5449 11.0157 59.579 17.2326 51.8937 18.9989C51.6456 20.2935 51.3555 22.0846 51.0402 24.1569C50.5021 27.6852 49.8925 32.0284 49.3249 36.1069C49.1904 37.0417 49.0642 37.96 48.9381 38.8534C48.2864 43.4861 47.7273 47.4115 47.4372 48.8262C47.1471 47.4115 46.5837 43.4861 45.9321 38.8534C45.8059 37.96 45.6756 37.0417 45.5453 36.1069C44.9735 32.0284 44.3639 27.6852 43.8257 24.1569C43.5062 22.0846 43.2161 20.2935 42.9723 18.9989C35.2827 17.2326 29.3169 11.0157 28.0472 3.26827C27.9042 2.39136 27.8244 1.48964 27.8033 0.5755H9.84279V1.90327C9.84279 7.39636 11.0662 12.6082 13.2566 17.2988L0.521973 29.8279L15.5395 21.4559C17.8519 25.0917 20.7864 28.3098 24.1961 30.9571L15.6404 51.519L29.2202 34.2496C33.0755 36.355 37.3428 37.8193 41.8708 38.4811L47.433 82.6906L52.991 38.4811C57.519 37.8193 61.7863 36.355 65.6416 34.2496L79.2213 51.519L70.6657 30.9571C74.0753 28.3098 77.0099 25.0917 79.3222 21.4559Z" fill="white"/>
<path d="M30.5773 0.577942C30.5983 1.49621 30.695 2.39381 30.8632 3.27071C32.3304 10.9602 39.1876 16.7801 47.4321 16.7801C55.6724 16.7801 62.5296 10.9602 64.001 3.27071C64.1692 2.39381 64.2617 1.49621 64.2869 0.577942H30.5773Z" fill="white"/>
</svg>
