<svg width="72" height="77" viewBox="0 0 72 77" fill="none" xmlns="http://www.w3.org/2000/svg">
<path d="M35.692 52.5139C34.0347 43.6526 31.1264 35.1592 27.2798 27.4869C31.1345 22.1402 33.795 17.1938 35.2411 12.7004C35.5417 12.7004 35.8422 12.7004 36.1428 12.7004C37.5889 17.1938 40.2494 22.1402 44.1042 27.4869C40.2575 35.1592 37.3492 43.6526 35.692 52.5139ZM59.4379 35.4706C57.9471 34.0227 56.1802 32.1663 54.3442 30.047C53.7593 29.3676 53.1622 28.6638 52.5692 27.9358C57.9837 17.667 64.3325 8.26771 71.3839 0.0898438C65.7135 2.25362 54.8276 3.51953 43.0562 3.88758C43.6939 7.15549 44.7663 10.112 45.6396 12.3C49.6852 11.9482 53.15 11.3658 55.2785 10.5569C52.4961 13.7803 49.9167 17.3556 47.5812 21.2018C45.6924 18.3465 44.0351 15.3778 42.8978 12.4982C42.5728 11.6691 42.2926 10.8481 42.057 10.0392C41.5614 8.57913 41.0821 6.94922 40.7003 5.22224C40.6109 4.80567 40.5216 4.38504 40.4444 3.95229C38.8684 3.98464 37.2802 4.00082 35.692 4.00082C34.1119 4.00082 32.5318 3.98464 30.9639 3.95633C30.8867 4.38504 30.7974 4.80567 30.7039 5.22224C30.2774 7.16358 29.725 8.97549 29.1685 10.573C28.9695 11.208 28.738 11.8511 28.4861 12.4982C27.3488 15.3778 25.6915 18.3465 23.8068 21.2018C21.4672 17.3556 18.8879 13.7803 16.1055 10.5569C18.238 11.3698 21.7149 11.9482 25.7687 12.3C26.642 10.112 27.7103 7.15549 28.3521 3.88758C16.5685 3.51953 5.67448 2.25362 0 0.0898438C7.05147 8.26771 13.4002 17.667 18.8147 27.9358C18.2217 28.6638 17.6246 29.3676 17.0397 30.047C15.2037 32.1663 13.4368 34.0227 11.9501 35.4706C8.96462 27.0258 7.89634 19.1877 7.52671 14.12C5.3739 10.9694 3.11548 7.93607 0.763638 5.02407C1.12515 16.3404 4.52496 51.5433 32.1256 71.9232C31.3985 68.6108 30.578 65.3308 29.6641 62.079C22.6573 56.0933 17.848 48.9427 14.5416 41.8406C16.1014 40.4494 18.047 38.5242 20.1064 36.2674C20.7157 35.6041 21.3291 34.9125 21.9505 34.1966C28.1734 47.3087 32.9014 61.6463 35.692 76.5501C38.4825 61.6463 43.2105 47.3087 49.4334 34.1966C50.0549 34.9125 50.6682 35.6041 51.2775 36.2674C53.3369 38.5242 55.2825 40.4494 56.8423 41.8406C53.5359 48.9427 48.7266 56.0933 41.7198 62.079C40.8059 65.3308 39.9854 68.6108 39.2583 71.9232C66.859 51.5433 70.2588 16.3404 70.6203 5.02407C68.2684 7.93607 66.01 10.9694 63.8572 14.12C63.4876 19.1877 62.4193 27.0258 59.4379 35.4706Z" fill="white"/>
</svg>
